<svg xmlns="http://www.w3.org/2000/svg" viewBox="0 0 357.5 247.3"><defs><style>.cls-1{fill:#125576}.cls-2{fill:#f26522}</style></defs><g id="Layer_2" data-name="Layer 2"><g id="Layer_1-2" data-name="Layer 1"><path d="M94.5 227.6 90 247.2h2.7l1-5H98l.9 5h2.7l-4-19.6Zm-.3 12.3 1.7-9.4 1.6 9.4ZM127 227.6l-4.4 19.6h2.7l1-5h4.2l.9 5h2.7l-4-19.6Zm-.4 12.3 1.8-9.4 1.7 9.4ZM116.2 227.6h2.7v19.6h-2.7zM65 229.9h3.3v17.3H71v-17.3h3.2v-2.3H65v2.3zM29.3 227.6 25 247.2h2.7l1-5h4.2l.8 5h2.8l-4-19.6Zm-.3 12.3 1.7-9.4 1.8 9.4ZM86.3 240.4c0-1.8-.6-2.8-2.5-3 2.3-.7 2.6-1.9 2.6-4.5 0-4.3-.4-5.3-4.4-5.3h-4.2v19.6h2.8v-8.6h.9c1.8 0 2.1.5 2.1 2.4v4.4a3.3 3.3 0 0 0 .3 1.8h2.6a13.6 13.6 0 0 1-.2-2.5Zm-5-4h-.7V230H82c1.7 0 1.9.3 1.9 3.2s-.4 3.3-2.5 3.3ZM46.3 243.2c0 1.4-.5 2-1.9 2s-1.9-.7-1.9-2v-15.6h-2.7v15.2c0 2.2.9 4.5 4.6 4.5s4.6-2.3 4.6-4.5v-15.2h-2.7ZM144.8 243.9l-3.2-16.3h-3.8v19.6h2.4v-16.7h.1l3.2 16.7h3.9v-19.6h-2.6v16.3zM55.8 231.7c0-1.5.5-2.2 1.6-2.2s1.5.7 1.5 1.8v1.6h2.6V231a3.1 3.1 0 0 0-.8-2.5 4.6 4.6 0 0 0-3.2-1c-3 0-4.4 1.3-4.4 4.5 0 2.7 1.4 4.2 3.1 6 2.9 2.8 3 3.3 3 5 0 1.3-.4 2.3-1.8 2.3-1.1 0-1.6-.9-1.6-2.2v-1.6H53v2.4c0 2.4 1.7 3.5 4.2 3.5 3.2 0 4.4-1.8 4.4-4.8 0-2.4-.5-3.4-3.1-6.1-2.5-2.7-2.8-3.5-2.8-4.8ZM216.4 229.9h3.3v17.3h2.7v-17.3h3.3v-2.3h-9.3v2.3zM302.9 237.1c1.8-.3 2.5-1 2.5-4.8 0-3.5-.6-4.7-4-4.7h-4.7v19.6h4.3c4 0 4.5-1.4 4.5-5.6 0-3.3-.4-4-2.6-4.5Zm-3.5-7.4h1.3c1.7 0 2.1.5 2.1 2.8 0 3.2-.2 3.5-1.8 3.5h-1.6Zm1.7 15.4h-1.7v-7h1.8c1.5 0 1.7.5 1.7 3.4s-.2 3.6-1.8 3.6ZM287.7 227.4c-3.7 0-4.5 2.4-4.5 5.2v9.9c0 3 1 4.8 4.5 4.8 3.8 0 4.7-2.4 4.7-5.1v-10c0-3-1.2-4.8-4.7-4.8Zm2 15.2c0 1.7-.8 2.6-2 2.6s-1.8-.9-1.8-2.5v-10.3c0-2 .6-2.9 1.8-2.9s2 1 2 2.9ZM315.9 237.1c1.8-.3 2.4-1 2.4-4.8 0-3.5-.5-4.7-3.9-4.7h-4.7v19.6h4.3c4 0 4.5-1.4 4.5-5.6 0-3.3-.4-4-2.6-4.5Zm-3.5-7.4h1.3c1.7 0 2 .5 2 2.8 0 3.2 0 3.5-1.7 3.5h-1.6Zm1.7 15.4h-1.7v-7h1.8c1.5 0 1.7.5 1.7 3.4s-.2 3.6-1.8 3.6ZM257.8 243.9h-.1l-3.2-16.3h-3.7v19.6h2.3v-16.7h.1l3.2 16.7h3.9v-19.6h-2.5v16.3zM330 227.6l-2.8 8.2-2.4-8.2h-2.7l3.8 11.6v8h2.7v-8l3.8-11.6H330zM193.3 240.4c0-1.8-.7-2.8-2.5-3 2.2-.7 2.6-1.9 2.6-4.5 0-4.3-.4-5.3-4.4-5.3h-4.2v19.6h2.7v-8.6h1c1.7 0 2 .5 2 2.4v4.4a3.4 3.4 0 0 0 .4 1.8h2.5a13.6 13.6 0 0 1-.2-2.5Zm-5.1-4h-.7V230h1.3c1.7 0 1.9.3 1.9 3.2s-.3 3.3-2.5 3.3ZM163.6 227.4c-3.7 0-4.6 2.4-4.6 5.2v9.9c0 3 1.1 4.8 4.5 4.8 3.2 0 4-1.5 4-3.6v-2.2H165v1.4c0 1.6-.7 2.3-1.7 2.3s-1.6-.4-1.6-2.7V233c0-2.4.3-3.4 1.7-3.4 1.2 0 1.6.8 1.6 2v1.4h2.6v-2c0-2.1-1.3-3.5-4-3.5ZM177.6 236H174v-8.4h-2.7v19.6h2.7v-8.9h3.6v8.9h2.7v-19.6h-2.7v8.4zM239.9 227.6l-4.4 19.6h2.8l.9-5h4.2l.9 5h2.7l-4-19.6Zm-.3 12.3 1.7-9.4 1.7 9.4ZM197.7 227.6h2.7v19.6h-2.7zM229.2 227.6h2.7v19.6h-2.7zM207.2 231.7c0-1.5.5-2.2 1.6-2.2s1.5.7 1.5 1.8v1.6h2.6V231a3.1 3.1 0 0 0-.8-2.5 4.6 4.6 0 0 0-3.2-1c-3 0-4.4 1.3-4.4 4.5 0 2.7 1.4 4.2 3.2 6 2.8 2.8 2.9 3.3 2.9 5 0 1.3-.4 2.3-1.8 2.3-1.1 0-1.6-.9-1.6-2.2v-1.6h-2.7v2.4c0 2.4 1.7 3.5 4.2 3.5 3.2 0 4.4-1.8 4.4-4.8 0-2.4-.5-3.4-3.1-6.1-2.5-2.7-2.8-3.5-2.8-4.8ZM275 227.6h-2.7v18a1.5 1.5 0 0 0 1.4 1.6s.1 0 .1 0h5.8v-2.3H275ZM108 227.6h-2.7v18a1.5 1.5 0 0 0 1.5 1.6h5.8v-2.3h-4.5ZM24.5 21.2 0 203.2h24.3L29 163h26.9l4.7 40.4H85L60 21.2ZM32 138.6l9.5-80a122 122 0 0 1 .7-13.2 119.8 119.8 0 0 1 1 13.1l9.5 80.1ZM126 18.1c-20.2 0-37.5 11.2-37.5 38v112.2c0 26.9 17.3 38 37.5 38s37.6-10.7 37.6-38v-25.9h-24.3v22.8c0 13.3-6.7 18.1-13.3 18.1s-13.3-4.8-13.3-18v-106c0-13.4 6.6-18.1 13.3-18.1s13.3 4.7 13.3 18v25.5h24.2V56c0-27.3-17.3-38-37.5-38ZM199.7 179V21.2h-24.3v165.2a16.9 16.9 0 0 0 16.9 16.9h31.6V179Z" class="cls-1"/><path d="M223.9 21.2 212.7 0v45.4h120.5V179H237v24.2h103.7a16.9 16.9 0 0 0 16.9-16.8V38a16.9 16.9 0 0 0-17-16.9H224" class="cls-2"/><path d="M230.2 74.8H224v-4.4h17.6v4.4h-6.3v16.7h-5Z" class="cls-2"/><path d="M249.2 76.3a6 6 0 0 1 1.8.3l-.3 4.3a5.6 5.6 0 0 0-1.9-.3c-1.9 0-3.4 1-3.4 3.8v7.1h-5V76.7h4.7l.2 2a4.2 4.2 0 0 1 3.9-2.3ZM257.4 76.6v8.5a2.4 2.4 0 0 0 2.5 2.4 2.4 2.4 0 0 0 2.5-2.4v-8.5h5v15h-4.6l-.1-1.5A5.8 5.8 0 0 1 258 92a5.3 5.3 0 0 1-5.6-5.5v-9.9ZM276.5 80.6v4.8c0 2.6 2.2 2.4 4.6 1.8l.3 4a12.6 12.6 0 0 1-4 .7c-3.4 0-5.9-1.7-5.9-5.6v-5.7h-2.4v-4h2.4v-4.8h4.8v4.8h4.2v4ZM288 78a6 6 0 0 1 4.4-1.7 5.3 5.3 0 0 1 5.6 5.5v9.7h-4.9v-8.3a2.4 2.4 0 0 0-2.5-2.4 2.4 2.4 0 0 0-2.5 2.5v8.3h-4.9v-22h5ZM243.7 112a2.3 2.3 0 0 0-2.5-2.4 2.4 2.4 0 0 0-2.5 2.5v8.3h-4.9V112a2.5 2.5 0 0 0-4.9 0v8.3H224v-15h4.5l.1 1.6a5.8 5.8 0 0 1 4.7-1.8 5 5 0 0 1 4.7 2.5 6 6 0 0 1 5-2.5 5.3 5.3 0 0 1 5.6 5.5v9.7h-5ZM251.5 106.5a13.6 13.6 0 0 1 6.2-1.3c4.3 0 7.2 1.7 7.2 5.7v9.5h-4.7l-.2-1.9a5.9 5.9 0 0 1-4.6 2.2 4.3 4.3 0 0 1-4.6-4.4c0-3.3 2.8-4.7 6.6-4.7a9.8 9.8 0 0 1 2.6.3v-.3c0-1.8-1-2.2-3.2-2.2a11.5 11.5 0 0 0-4.8 1.1Zm8.4 8.5v-.6a7 7 0 0 0-1.8-.3c-1.2 0-2.4.4-2.4 1.5 0 1 .7 1.4 1.7 1.4s2.5-.6 2.5-2ZM278.6 120.4l-.2-1.2a6.3 6.3 0 0 1-4.3 1.5c-4.2 0-7-3.3-7-7.7s2.7-7.8 7-7.8a5.4 5.4 0 0 1 4.5 1.8v-8.5h4.7v21.9Zm-6.6-7.5a3.2 3.2 0 0 0 3.3 3.4 3.4 3.4 0 1 0-3.3-3.4ZM300 119.4a12 12 0 0 1-5.5 1.3c-5.5 0-8.9-3-8.9-7.8a7.4 7.4 0 0 1 7.7-7.7c4.3 0 8.1 2.8 7 9h-9.9c.3 1.7 2.1 2.3 4.1 2.3a13 13 0 0 0 4.9-.8Zm-4-8a2.4 2.4 0 0 0-2.6-2.3 2.6 2.6 0 0 0-3 2.3ZM224 156v-21h4.6l.1 1.5a5.4 5.4 0 0 1 4.6-1.9c4.2 0 7 3.4 7 7.8s-2.8 7.8-7 7.8a6.5 6.5 0 0 1-4.4-1.4v7.3Zm4.8-13.6a3.2 3.2 0 0 0 3.2 3.4 3.3 3.3 0 0 0 3.3-3.4 3.2 3.2 0 0 0-3.3-3.4 3.2 3.2 0 0 0-3.2 3.4ZM247.3 135v8.4a2.4 2.4 0 0 0 2.5 2.4 2.4 2.4 0 0 0 2.5-2.4v-8.5h4.9v15h-4.5l-.2-1.5a5.8 5.8 0 0 1-4.6 2 5.3 5.3 0 0 1-5.5-5.6v-9.9ZM260.1 149.8V128h4.8v8.6a5.4 5.4 0 0 1 4.5-2c4.2 0 7 3.4 7 7.9s-2.7 7.7-7 7.7a6.4 6.4 0 0 1-4.4-1.5l-.2 1.1Zm4.9-7.4a3.2 3.2 0 0 0 3.2 3.4 3.2 3.2 0 0 0 3.2-3.4 3.2 3.2 0 1 0-6.4 0ZM283.6 149.8h-5V128h5ZM286.3 130.4a2.7 2.7 0 1 1 2.7 2.6 2.5 2.5 0 0 1-2.7-2.6Zm5.1 19.5h-4.9v-15h5ZM302 134.6a11.7 11.7 0 0 1 5 1l-.4 4.2a10 10 0 0 0-3.7-.7c-2.3 0-4.2.8-4.2 3.3 0 2.2 1.7 3.3 4 3.3a8.2 8.2 0 0 0 4-1l.4 4.3a10.6 10.6 0 0 1-5 1.2c-4.7 0-8.3-3.2-8.3-7.7 0-5.2 3.6-7.9 8.2-7.9Z" class="cls-2"/></g></g></svg>